<?xml version="1.0" encoding="UTF-8"?>
<svg id="Capa_5" data-name="Capa 5" xmlns="http://www.w3.org/2000/svg" viewBox="0 0 50 25">
  <g id="logotipo">
    <g id="subtitulo">
      <path d="M2.48,19.81c.1,0,.2,0,.3.03.1.02.19.04.28.07.08.03.15.07.2.11s.08.1.08.15c0,.15-.09.23-.26.23-.04,0-.08,0-.12-.02-.04-.01-.08-.02-.13-.04-.05-.01-.11-.02-.18-.04-.07-.01-.16-.02-.27-.02-.23,0-.4.08-.53.23-.12.15-.19.36-.19.6,0,.27.06.49.19.66.13.17.3.25.53.25.14,0,.26-.01.35-.04.09-.02.16-.05.22-.08.06-.03.1-.06.14-.08.04-.02.08-.04.12-.04.06,0,.11.01.15.04.04.03.05.08.05.16s-.03.15-.1.22c-.06.06-.14.11-.24.15-.1.04-.2.07-.31.09-.11.02-.21.03-.31.03-.42,0-.74-.12-.98-.35-.24-.23-.36-.56-.36-.98,0-.18.03-.35.09-.52.06-.16.14-.31.26-.43.11-.12.25-.22.42-.29.17-.07.36-.11.58-.11Z"/>
      <path d="M4.15,20.1c0,.09,0,.2,0,.32,0,.13,0,.26,0,.4,0,.14.02.28.03.42.02.14.05.26.09.37.04.11.1.2.18.27.08.07.18.1.3.1s.22-.03.3-.1c.08-.07.14-.16.18-.27.04-.11.07-.23.09-.37.02-.14.03-.28.03-.42,0-.14,0-.27,0-.4,0-.13,0-.24,0-.32.01-.21.1-.32.26-.32.06,0,.11.02.14.05.03.03.06.08.07.14.02.06.02.14.03.22,0,.09,0,.18,0,.29,0,.22-.01.45-.03.68-.02.24-.07.45-.15.65-.08.2-.19.36-.34.48-.15.13-.35.19-.61.19s-.46-.06-.61-.19c-.15-.13-.27-.29-.34-.48-.08-.2-.13-.41-.15-.65-.02-.24-.03-.46-.03-.68,0-.11,0-.2,0-.29,0-.09.01-.16.03-.22.02-.06.04-.11.07-.14s.08-.05.14-.05c.16,0,.25.11.26.32Z"/>
      <path d="M6.62,18.83c.08,0,.15.03.22.09.07.06.1.14.1.22s-.03.15-.1.21c-.07.06-.15.09-.23.09-.07,0-.14-.03-.2-.09-.06-.06-.1-.13-.1-.22,0-.08.03-.15.1-.21.06-.06.14-.09.22-.09ZM6.39,22.12c0-.13-.01-.27-.02-.44,0-.16,0-.34,0-.54,0-.24,0-.45,0-.63,0-.17.01-.32.03-.43.02-.11.04-.19.07-.25.03-.05.08-.08.14-.08.06,0,.11.02.15.06.04.04.07.13.08.27.02.36.03.71.03,1.05,0,.17,0,.33-.01.48s-.01.31-.02.49c0,.08-.01.15-.02.19-.01.04-.03.08-.05.1-.02.02-.04.04-.07.04-.03,0-.06,0-.09,0-.06,0-.11-.02-.15-.06s-.07-.13-.07-.28Z"/>
      <path d="M9.56,22.43c-.07,0-.13-.03-.17-.08-.05-.06-.08-.12-.1-.19-.04.04-.09.08-.14.11-.05.04-.11.07-.18.11-.07.03-.14.06-.23.08-.08.02-.17.03-.27.03-.12,0-.25-.02-.39-.06-.14-.04-.28-.11-.4-.21-.13-.1-.23-.23-.31-.4-.08-.17-.13-.38-.13-.63,0-.22.03-.41.1-.58.07-.17.16-.31.28-.43.12-.12.26-.2.42-.26.16-.06.34-.09.53-.09.17,0,.3.02.39.06s.17.08.23.13v-.32c0-.12,0-.23,0-.35,0-.11,0-.21,0-.31,0-.09,0-.16,0-.21,0-.12.03-.2.06-.24.03-.04.09-.06.18-.06s.15.02.18.06c.03.04.05.12.06.22,0,.04,0,.1,0,.18,0,.08,0,.16,0,.25s0,.18,0,.27c0,.09,0,.17,0,.25v.26c0,.35,0,.67,0,.97,0,.3,0,.53,0,.71,0,.04.02.07.04.11.02.03.05.07.07.1s.05.07.07.11.03.08.03.12c0,.05-.01.09-.04.13-.02.04-.05.07-.09.09-.04.02-.07.04-.11.05-.04.01-.07.02-.11.02ZM8.57,21.98c.21,0,.38-.06.49-.19.11-.13.17-.34.17-.63,0-.56-.22-.84-.67-.84-.1,0-.2.02-.3.05-.1.03-.18.08-.26.14-.07.07-.13.15-.18.25-.05.1-.07.22-.07.36,0,.11.02.22.05.32s.08.2.15.28c.07.08.15.15.25.19.1.05.22.07.36.07Z"/>
      <path d="M12.36,22.46c-.06,0-.1,0-.13-.03-.03-.02-.06-.04-.07-.07-.02-.03-.03-.07-.04-.11,0-.04-.01-.09-.02-.14-.09.11-.2.2-.33.27-.14.07-.31.11-.52.11-.13,0-.27-.02-.41-.06-.14-.04-.27-.11-.38-.21-.11-.1-.21-.23-.28-.39s-.11-.37-.11-.62c0-.2.02-.38.07-.55.05-.17.12-.32.22-.45.1-.13.22-.23.37-.31.15-.08.32-.11.52-.11.18,0,.33.03.47.1.14.06.26.17.37.31,0-.04,0-.08,0-.13,0-.04.01-.08.03-.12.02-.04.04-.07.07-.09.03-.02.08-.03.14-.03.05,0,.1.02.14.06.04.04.07.13.08.27.01.18.02.35.02.49,0,.14,0,.29,0,.45,0,.19,0,.36,0,.52s-.01.33-.03.51c0,.08-.02.14-.03.19-.01.05-.03.08-.04.1s-.04.04-.06.04c-.02,0-.05.01-.07.01ZM12.08,21.15c0-.18-.03-.32-.08-.44-.05-.11-.12-.2-.2-.27-.08-.06-.17-.11-.26-.13-.09-.02-.18-.04-.26-.04-.12,0-.23.02-.32.07-.09.04-.16.11-.21.18-.06.08-.1.17-.12.27-.03.1-.04.22-.04.34,0,.3.07.53.2.67.13.14.31.22.54.22.13,0,.25-.02.34-.07.09-.05.17-.11.23-.19.06-.08.1-.17.13-.28.03-.11.04-.22.04-.34Z"/>
      <path d="M16.43,22.43c-.07,0-.13-.03-.17-.08-.05-.06-.08-.12-.1-.19-.04.04-.09.08-.14.11-.05.04-.11.07-.18.11-.07.03-.14.06-.23.08-.08.02-.17.03-.27.03-.12,0-.25-.02-.39-.06-.14-.04-.28-.11-.4-.21-.13-.1-.23-.23-.31-.4-.08-.17-.13-.38-.13-.63,0-.22.03-.41.1-.58.07-.17.16-.31.28-.43.12-.12.26-.2.42-.26.16-.06.34-.09.53-.09.17,0,.3.02.39.06s.17.08.23.13v-.32c0-.12,0-.23,0-.35,0-.11,0-.21,0-.31,0-.09,0-.16,0-.21,0-.12.03-.2.06-.24.03-.04.09-.06.18-.06s.15.02.18.06c.03.04.05.12.06.22,0,.04,0,.1,0,.18,0,.08,0,.16,0,.25s0,.18,0,.27c0,.09,0,.17,0,.25v.26c0,.35,0,.67,0,.97,0,.3,0,.53,0,.71,0,.04.02.07.04.11.02.03.05.07.07.1s.05.07.07.11.03.08.03.12c0,.05-.01.09-.04.13-.02.04-.05.07-.09.09-.04.02-.07.04-.11.05-.04.01-.07.02-.11.02ZM15.44,21.98c.21,0,.38-.06.49-.19.11-.13.17-.34.17-.63,0-.56-.22-.84-.67-.84-.1,0-.2.02-.3.05-.1.03-.18.08-.26.14-.07.07-.13.15-.18.25-.05.1-.07.22-.07.36,0,.11.02.22.05.32s.08.2.15.28c.07.08.15.15.25.19.1.05.22.07.36.07Z"/>
      <path d="M18.3,21.49c-.12,0-.25,0-.38-.03-.13-.02-.28-.06-.43-.12.03.21.12.37.26.47.14.11.35.16.62.16.1,0,.18,0,.26-.02.08-.01.15-.03.2-.04.06-.02.11-.03.15-.04.04-.01.09-.02.12-.02.05,0,.09.01.14.04.04.03.07.08.07.15,0,.09-.04.16-.11.21-.07.06-.16.1-.26.13-.1.03-.21.06-.32.07-.11.01-.21.02-.3.02-.2,0-.39-.03-.56-.08-.17-.05-.32-.14-.44-.25-.12-.11-.22-.25-.29-.42-.07-.17-.1-.36-.1-.58s.03-.4.1-.57c.07-.17.16-.3.28-.42.12-.11.26-.2.42-.26s.33-.09.52-.09c.14,0,.28.02.42.06s.26.09.36.17c.1.08.19.17.25.29.06.12.1.25.1.4,0,.14-.03.25-.08.35s-.12.17-.22.23c-.09.06-.21.1-.34.13-.13.03-.28.04-.44.04ZM18.26,20.29c-.09,0-.18.01-.27.03-.09.02-.16.06-.23.11-.07.05-.13.12-.18.2-.05.08-.08.18-.1.3.13.06.26.1.38.12.12.02.25.03.39.03.2,0,.35-.02.45-.07.1-.05.15-.14.15-.27,0-.12-.05-.23-.14-.31-.09-.09-.24-.13-.46-.13Z"/>
      <path d="M22.13,21.49c-.12,0-.25,0-.38-.03-.13-.02-.28-.06-.43-.12.03.21.12.37.26.47.14.11.35.16.62.16.1,0,.18,0,.26-.02.08-.01.15-.03.2-.04.06-.02.11-.03.15-.04.04-.01.09-.02.12-.02.05,0,.09.01.14.04.04.03.07.08.07.15,0,.09-.04.16-.11.21-.07.06-.16.1-.26.13-.1.03-.21.06-.32.07-.11.01-.21.02-.3.02-.2,0-.39-.03-.56-.08-.17-.05-.32-.14-.44-.25-.12-.11-.22-.25-.29-.42-.07-.17-.1-.36-.1-.58s.03-.4.1-.57c.07-.17.16-.3.28-.42.12-.11.26-.2.42-.26s.33-.09.52-.09c.14,0,.28.02.42.06s.26.09.36.17c.1.08.19.17.25.29.06.12.1.25.1.4,0,.14-.03.25-.08.35s-.12.17-.22.23c-.09.06-.21.1-.34.13-.13.03-.28.04-.44.04ZM22.1,20.29c-.09,0-.18.01-.27.03-.09.02-.16.06-.23.11-.07.05-.13.12-.18.2-.05.08-.08.18-.1.3.13.06.26.1.38.12.12.02.25.03.39.03.2,0,.35-.02.45-.07.1-.05.15-.14.15-.27,0-.12-.05-.23-.14-.31-.09-.09-.24-.13-.46-.13ZM21.64,19.41s-.07-.02-.11-.04c-.04-.02-.05-.05-.05-.11,0-.04.03-.09.07-.14.05-.05.1-.11.17-.17.07-.06.15-.11.23-.17.09-.05.17-.1.26-.14.08-.04.16-.07.23-.1.07-.03.13-.04.18-.04.06,0,.11.02.15.05.04.03.06.08.06.15,0,.04-.02.09-.07.14-.04.05-.1.1-.18.15s-.15.1-.24.15c-.09.05-.18.09-.27.13-.09.04-.17.07-.25.09-.08.02-.14.04-.2.04Z"/>
      <path d="M23.62,22.14c0-.12,0-.27-.01-.43,0-.17,0-.34,0-.54,0-.19,0-.4,0-.61,0-.21,0-.43,0-.66,0-.24,0-.45,0-.63,0-.18.01-.32.03-.43.02-.11.04-.2.07-.25.03-.05.08-.08.14-.08.06,0,.11.02.15.06.04.04.07.13.08.26.01.25.02.5.03.77s0,.53,0,.79v.45c0,.14,0,.28,0,.42s0,.28-.01.43c0,.14,0,.29-.02.45,0,.08-.01.15-.02.19-.01.04-.03.08-.05.1s-.04.04-.07.04c-.03,0-.06,0-.09,0-.06,0-.11-.02-.15-.06-.04-.04-.07-.13-.07-.28Z"/>
      <path d="M24.74,22.65s.03-.04.03-.06c0-.03,0-.06,0-.1-.07-.01-.12-.04-.18-.1-.05-.06-.08-.13-.08-.21s.02-.15.07-.21c.05-.06.13-.09.24-.09.07,0,.12.01.17.04.05.02.08.06.11.1.03.04.05.09.06.14.01.05.02.1.02.15,0,.2-.04.36-.11.47-.08.12-.18.18-.32.18-.03,0-.06-.01-.09-.04s-.04-.06-.04-.11c0-.06.01-.1.04-.11.03-.01.05-.03.06-.04Z"/>
      <path d="M27.86,19.81c.1,0,.2,0,.3.03.1.02.19.04.28.07.08.03.15.07.2.11s.08.1.08.15c0,.15-.09.23-.26.23-.04,0-.08,0-.12-.02-.04-.01-.08-.02-.13-.04-.05-.01-.11-.02-.18-.04-.07-.01-.16-.02-.27-.02-.23,0-.4.08-.53.23-.12.15-.19.36-.19.6,0,.27.06.49.19.66.13.17.3.25.53.25.14,0,.26-.01.35-.04.09-.02.16-.05.22-.08.06-.03.1-.06.14-.08.04-.02.08-.04.12-.04.06,0,.11.01.15.04.04.03.05.08.05.16s-.03.15-.1.22c-.06.06-.14.11-.24.15-.1.04-.2.07-.31.09-.11.02-.21.03-.31.03-.42,0-.74-.12-.98-.35-.24-.23-.36-.56-.36-.98,0-.18.03-.35.09-.52.06-.16.14-.31.26-.43.11-.12.25-.22.42-.29.17-.07.36-.11.58-.11Z"/>
      <path d="M29.54,20.1c0,.09,0,.2,0,.32,0,.13,0,.26,0,.4,0,.14.02.28.03.42.02.14.05.26.09.37.04.11.1.2.18.27.08.07.18.1.3.1s.22-.03.3-.1c.08-.07.14-.16.18-.27.04-.11.07-.23.09-.37.02-.14.03-.28.03-.42,0-.14,0-.27,0-.4,0-.13,0-.24,0-.32.01-.21.1-.32.26-.32.06,0,.11.02.14.05.03.03.06.08.07.14.02.06.02.14.03.22,0,.09,0,.18,0,.29,0,.22-.01.45-.03.68-.02.24-.07.45-.15.65-.08.2-.19.36-.34.48-.15.13-.35.19-.61.19s-.46-.06-.61-.19c-.15-.13-.27-.29-.34-.48-.08-.2-.13-.41-.15-.65-.02-.24-.03-.46-.03-.68,0-.11,0-.2,0-.29,0-.09.01-.16.03-.22.02-.06.04-.11.07-.14s.08-.05.14-.05c.16,0,.25.11.26.32Z"/>
      <path d="M32,18.83c.08,0,.15.03.22.09.07.06.1.14.1.22s-.03.15-.1.21c-.07.06-.15.09-.23.09-.07,0-.14-.03-.2-.09-.06-.06-.1-.13-.1-.22,0-.08.03-.15.1-.21.06-.06.14-.09.22-.09ZM31.77,22.12c0-.13-.01-.27-.02-.44,0-.16,0-.34,0-.54,0-.24,0-.45,0-.63,0-.17.01-.32.03-.43.02-.11.04-.19.07-.25.03-.05.08-.08.14-.08.06,0,.11.02.15.06.04.04.07.13.08.27.02.36.03.71.03,1.05,0,.17,0,.33-.01.48s-.01.31-.02.49c0,.08-.01.15-.02.19-.01.04-.03.08-.05.1-.02.02-.04.04-.07.04-.03,0-.06,0-.09,0-.06,0-.11-.02-.15-.06s-.07-.13-.07-.28Z"/>
      <path d="M34.95,22.43c-.07,0-.13-.03-.17-.08-.05-.06-.08-.12-.1-.19-.04.04-.09.08-.14.11-.05.04-.11.07-.18.11-.07.03-.14.06-.23.08-.08.02-.17.03-.27.03-.12,0-.25-.02-.39-.06-.14-.04-.28-.11-.4-.21-.13-.1-.23-.23-.31-.4-.08-.17-.13-.38-.13-.63,0-.22.03-.41.1-.58.07-.17.16-.31.28-.43.12-.12.26-.2.42-.26.16-.06.34-.09.53-.09.17,0,.3.02.39.06s.17.08.23.13v-.32c0-.12,0-.23,0-.35,0-.11,0-.21,0-.31,0-.09,0-.16,0-.21,0-.12.03-.2.06-.24.03-.04.09-.06.18-.06s.15.02.18.06c.03.04.05.12.06.22,0,.04,0,.1,0,.18,0,.08,0,.16,0,.25s0,.18,0,.27c0,.09,0,.17,0,.25v.26c0,.35,0,.67,0,.97,0,.3,0,.53,0,.71,0,.04.02.07.04.11.02.03.05.07.07.1s.05.07.07.11.03.08.03.12c0,.05-.01.09-.04.13-.02.04-.05.07-.09.09-.04.02-.07.04-.11.05-.04.01-.07.02-.11.02ZM33.95,21.98c.21,0,.38-.06.49-.19.11-.13.17-.34.17-.63,0-.56-.22-.84-.67-.84-.1,0-.2.02-.3.05-.1.03-.18.08-.26.14-.07.07-.13.15-.18.25-.05.1-.07.22-.07.36,0,.11.02.22.05.32s.08.2.15.28c.07.08.15.15.25.19.1.05.22.07.36.07Z"/>
      <path d="M37.75,22.46c-.06,0-.1,0-.13-.03-.03-.02-.06-.04-.07-.07-.02-.03-.03-.07-.04-.11,0-.04-.01-.09-.02-.14-.09.11-.2.2-.33.27-.14.07-.31.11-.52.11-.13,0-.27-.02-.41-.06-.14-.04-.27-.11-.38-.21-.11-.1-.21-.23-.28-.39s-.11-.37-.11-.62c0-.2.02-.38.07-.55.05-.17.12-.32.22-.45.1-.13.22-.23.37-.31.15-.08.32-.11.52-.11.18,0,.33.03.47.1.14.06.26.17.37.31,0-.04,0-.08,0-.13,0-.04.01-.08.03-.12.02-.04.04-.07.07-.09.03-.02.08-.03.14-.03.05,0,.1.02.14.06.04.04.07.13.08.27.01.18.02.35.02.49,0,.14,0,.29,0,.45,0,.19,0,.36,0,.52s-.01.33-.03.51c0,.08-.02.14-.03.19-.01.05-.03.08-.04.1s-.04.04-.06.04c-.02,0-.05.01-.07.01ZM37.47,21.15c0-.18-.03-.32-.08-.44-.05-.11-.12-.2-.2-.27-.08-.06-.17-.11-.26-.13-.09-.02-.18-.04-.26-.04-.12,0-.23.02-.32.07-.09.04-.16.11-.21.18-.06.08-.1.17-.12.27-.03.1-.04.22-.04.34,0,.3.07.53.2.67.13.14.31.22.54.22.13,0,.25-.02.34-.07.09-.05.17-.11.23-.19.06-.08.1-.17.13-.28.03-.11.04-.22.04-.34Z"/>
      <path d="M41.82,22.43c-.07,0-.13-.03-.17-.08-.05-.06-.08-.12-.1-.19-.04.04-.09.08-.14.11-.05.04-.11.07-.18.11-.07.03-.14.06-.23.08-.08.02-.17.03-.27.03-.12,0-.25-.02-.39-.06-.14-.04-.28-.11-.4-.21-.13-.1-.23-.23-.31-.4-.08-.17-.13-.38-.13-.63,0-.22.03-.41.1-.58.07-.17.16-.31.28-.43.12-.12.26-.2.42-.26.16-.06.34-.09.53-.09.17,0,.3.02.39.06s.17.08.23.13v-.32c0-.12,0-.23,0-.35,0-.11,0-.21,0-.31,0-.09,0-.16,0-.21,0-.12.03-.2.06-.24.03-.04.09-.06.18-.06s.15.02.18.06c.03.04.05.12.06.22,0,.04,0,.1,0,.18,0,.08,0,.16,0,.25s0,.18,0,.27c0,.09,0,.17,0,.25v.26c0,.35,0,.67,0,.97,0,.3,0,.53,0,.71,0,.04.02.07.04.11.02.03.05.07.07.1s.05.07.07.11.03.08.03.12c0,.05-.01.09-.04.13-.02.04-.05.07-.09.09-.04.02-.07.04-.11.05-.04.01-.07.02-.11.02ZM40.82,21.98c.21,0,.38-.06.49-.19.11-.13.17-.34.17-.63,0-.56-.22-.84-.67-.84-.1,0-.2.02-.3.05-.1.03-.18.08-.26.14-.07.07-.13.15-.18.25-.05.1-.07.22-.07.36,0,.11.02.22.05.32s.08.2.15.28c.07.08.15.15.25.19.1.05.22.07.36.07Z"/>
      <path d="M43.68,21.49c-.12,0-.25,0-.38-.03-.13-.02-.28-.06-.43-.12.03.21.12.37.26.47.14.11.35.16.62.16.1,0,.18,0,.26-.02.08-.01.15-.03.2-.04.06-.02.11-.03.15-.04.04-.01.09-.02.12-.02.05,0,.09.01.14.04.04.03.07.08.07.15,0,.09-.04.16-.11.21-.07.06-.16.1-.26.13-.1.03-.21.06-.32.07-.11.01-.21.02-.3.02-.2,0-.39-.03-.56-.08-.17-.05-.32-.14-.44-.25-.12-.11-.22-.25-.29-.42-.07-.17-.1-.36-.1-.58s.03-.4.1-.57c.07-.17.16-.3.28-.42.12-.11.26-.2.42-.26s.33-.09.52-.09c.14,0,.28.02.42.06s.26.09.36.17c.1.08.19.17.25.29.06.12.1.25.1.4,0,.14-.03.25-.08.35s-.12.17-.22.23c-.09.06-.21.1-.34.13-.13.03-.28.04-.44.04ZM43.64,20.29c-.09,0-.18.01-.27.03-.09.02-.16.06-.23.11-.07.05-.13.12-.18.2-.05.08-.08.18-.1.3.13.06.26.1.38.12.12.02.25.03.39.03.2,0,.35-.02.45-.07.1-.05.15-.14.15-.27,0-.12-.05-.23-.14-.31-.09-.09-.24-.13-.46-.13Z"/>
      <path d="M46.77,22.1c-.01-.22-.02-.47-.02-.77,0-.3,0-.64,0-1.01-.03,0-.07,0-.12,0h-.11c-.06,0-.12,0-.17,0-.05,0-.09-.01-.13-.03-.04-.02-.07-.04-.09-.07-.02-.03-.03-.08-.03-.14,0-.17.12-.25.37-.25h.14c.06,0,.1,0,.14.01,0-.18,0-.33.01-.44,0-.11.02-.2.04-.26.02-.06.04-.1.08-.12.03-.02.07-.03.13-.03.06,0,.1.02.13.06.03.04.06.09.08.14.02.06.03.12.04.2,0,.07,0,.14,0,.21,0,.05,0,.09,0,.13,0,.04,0,.07,0,.11.05-.01.1-.02.15-.02.05,0,.1,0,.15,0,.13,0,.23.02.29.06.07.04.1.1.1.19,0,.06-.01.1-.04.13-.02.03-.06.06-.1.07-.04.02-.09.03-.14.03-.05,0-.11,0-.17,0h-.12s-.09,0-.12-.01v.5c0,.15,0,.3,0,.44,0,.14,0,.28-.01.42,0,.14,0,.28-.02.44,0,.08-.01.15-.02.19-.01.04-.03.08-.05.1-.02.02-.04.04-.07.04-.03,0-.06,0-.09,0-.06,0-.11-.02-.16-.06-.04-.04-.07-.13-.07-.28Z"/>
      <path d="M48.49,18.83c.08,0,.15.03.22.09.07.06.1.14.1.22s-.03.15-.1.21c-.07.06-.15.09-.23.09-.07,0-.14-.03-.2-.09-.06-.06-.1-.13-.1-.22,0-.08.03-.15.1-.21.06-.06.14-.09.22-.09ZM48.25,22.12c0-.13-.01-.27-.02-.44,0-.16,0-.34,0-.54,0-.24,0-.45,0-.63,0-.17.01-.32.03-.43.02-.11.04-.19.07-.25.03-.05.08-.08.14-.08.06,0,.11.02.15.06.04.04.07.13.08.27.02.36.03.71.03,1.05,0,.17,0,.33-.01.48s-.01.31-.02.49c0,.08-.01.15-.02.19-.01.04-.03.08-.05.1-.02.02-.04.04-.07.04-.03,0-.06,0-.09,0-.06,0-.11-.02-.15-.06s-.07-.13-.07-.28Z"/>
    </g>
    <g id="Mr.Do">
      <g>
        <path d="M12.95,10.18c0,.22-.03.44-.09.65-.06.21-.14.38-.23.49.12.12.18.4.18.83s-.06.71-.18.87c.07.07.12.19.16.37.04.18.06.38.06.6,0,.42-.07.74-.22.98.08.26.12.5.12.71,0,.32-.08.56-.24.73s-.34.25-.55.25c-.19,0-.35-.07-.49-.21-.15-.14-.22-.32-.22-.56,0-.12.02-.25.06-.37-.17-.32-.26-.68-.26-1.08s.09-.69.26-.87c-.13-.14-.2-.33-.2-.58,0-.24.07-.42.2-.56-.13-.28-.2-.59-.2-.93s.07-.58.2-.71c-.13-.28-.2-.64-.2-1.1s.07-.75.2-.87c-.19-.26-.28-.57-.28-.93,0-.32.09-.57.28-.75-.05-.07-.08-.17-.08-.29,0-.1.01-.22.04-.38.03-.16-.01.21-.01.07,0,.36-.03.31-.19.88-.16.57-.38.96-.65,1.17,0,.91-.17,1.45-.49,1.6,0,.3-.05.66-.16,1.07-.11.41-.21.61-.32.61,0,.17-.06.35-.19.55-.13.2-.25.3-.37.3.04.14.06.29.06.46,0,.19-.03.38-.09.55-.06.17-.14.31-.23.4,0,.25-.05.46-.14.62-.09.17-.22.33-.38.48,0,.26-.09.47-.26.62-.17.15-.37.23-.59.23-.21,0-.4-.07-.55-.22-.16-.15-.24-.35-.24-.61,0-.12,0-.21.02-.27-.13,0-.25-.12-.37-.36-.11-.24-.17-.5-.17-.78-.12,0-.24-.11-.38-.32-.13-.21-.24-.46-.32-.73-.08-.27-.1-.47-.06-.61-.11-.08-.21-.24-.31-.48-.1-.24-.15-.48-.15-.75,0-.28.05-.52.16-.73-.17-.01-.32-.14-.45-.38-.13-.24-.19-.48-.19-.72,0-.14.03-.24.1-.31-.13-.11-.25-.29-.37-.54-.11-.25-.17-.45-.17-.6-.17-.18-.26-.55-.26-1.1-.19,0-.34-.17-.48-.52.03.26,0,.52-.07.78-.07.26-.17.45-.29.57.12.11.21.32.28.63.07.31.1.63.1.94,0,.29-.03.5-.08.62.13.22.2.56.2,1.02,0,.51-.07.93-.2,1.25.11.24.16.47.16.71,0,.21-.05.44-.16.71.05.06.1.19.14.4.04.21.06.45.06.7,0,.47-.07.75-.2.85.01.08.02.19.02.33,0,.36-.08.64-.25.83-.17.19-.37.29-.6.29s-.45-.1-.63-.29c-.19-.19-.28-.45-.28-.77,0-.24.06-.5.18-.79-.16-.57-.24-1.1-.24-1.6,0-.46.06-.81.18-1.06-.13-.18-.2-.46-.2-.85,0-.18.02-.35.06-.51.04-.16.09-.27.14-.34-.13-.32-.2-.64-.2-.95s.07-.57.2-.71c-.07-.1-.12-.22-.16-.37-.04-.15-.06-.31-.06-.48,0-.25.04-.44.12-.56-.13-.24-.2-.54-.2-.91,0-.48.1-.83.3-1.04-.19-.19-.28-.59-.28-1.18,0-.28.03-.54.08-.8.05-.26.12-.43.2-.51,0-.26.09-.48.28-.64.18-.17.4-.25.63-.25.28,0,.51.1.71.31.26,0,.5.12.72.37.22.25.33.51.33.77.09.08.17.2.24.34.07.15.1.29.1.45,0,.11-.02.22-.06.33.16.01.29.11.39.29.1.18.15.35.15.52.11.1.19.23.27.4.07.17.11.35.11.53,0,.17-.03.33-.08.48.07,0,.13.06.19.18.06.12.09.25.09.38,0,.11-.03.19-.08.25.15.08.27.25.39.51.11.26.17.47.17.63.09.1.17.26.23.48.06.22.09.45.09.68,0,.18-.02.35-.06.5.13.1.26.29.38.59.12.3.18.58.18.86,0,.11,0,.19-.02.25.16.12.27.24.35.35.07.11.14.28.19.5.03-.61.15-.98.38-1.1-.03-.11-.04-.19-.04-.25,0-.21.05-.41.15-.6.1-.19.21-.29.35-.29-.07-.14-.1-.26-.1-.35,0-.3.2-.69.61-1.16-.04-.08-.06-.19-.06-.33,0-.24.05-.48.15-.73s.24-.43.43-.54c0-.42.03-.76.09-1.05.06-.28.21-.49.45-.61,0-.25.06-.45.17-.61.11-.16.25-.24.41-.24-.07-.11-.1-.26-.1-.44,0-.29.06-.59.19-.89.13-.3.27-.51.45-.62,0-.3.08-.57.25-.79.16-.22.43-.33.78-.33.07-.03.16-.04.28-.04.26,0,.46.12.58.36.13.24.19.46.19.65.12.43.18.75.18.98,0,.21-.06.53-.18.98.12.14.18.34.18.6,0,.25-.06.52-.18.81.12.14.18.37.18.68s-.07.58-.2.75c.17.24.26.53.26.89s-.08.66-.24.91c.05.15.08.33.08.52Z"/>
        <path d="M16.37,16.5c-.14.14-.32.22-.53.22-.18,0-.34-.06-.48-.18s-.21-.29-.21-.51c0-.14.03-.29.1-.47-.07-.16-.1-.33-.1-.5,0-.14.03-.25.09-.35-.07-.05-.12-.12-.15-.21-.03-.09-.05-.2-.05-.31s.02-.24.07-.38c-.1-.13-.15-.28-.15-.45,0-.22.08-.4.24-.54-.01-.03-.02-.09-.02-.17,0-.12.01-.2.03-.24-.13-.16-.19-.39-.19-.69,0-.21.04-.37.12-.48-.08-.07-.15-.16-.21-.28-.06-.12-.09-.24-.09-.37,0-.14.04-.27.12-.4-.06-.14-.09-.26-.09-.36,0-.17.05-.33.15-.48-.14-.14-.21-.28-.21-.43,0-.11.04-.27.12-.47-.08-.16-.12-.33-.12-.52,0-.24.09-.39.26-.45.01-.16.07-.29.17-.4.1-.1.23-.16.38-.16.17,0,.32.08.46.25.13.17.2.41.2.72,0,.13,0,.23-.02.31.05-.02.09-.06.14-.11.05-.05.1-.09.17-.11.07-.02.17-.03.31-.03.02-.06.1-.12.23-.17.13-.06.26-.09.39-.09.09,0,.15.01.19.03.09-.05.18-.07.28-.07.14,0,.29.1.45.29.28-.02.48.04.6.19.18-.01.34.01.48.07.14.06.25.18.33.36.22.14.33.32.33.55,0,.2-.08.38-.25.54s-.35.25-.54.25c-.22,0-.4-.11-.55-.35-.13,0-.22-.01-.29-.03-.07-.02-.14-.07-.21-.16-.07.02-.13.03-.17.03-.1,0-.21-.03-.33-.09-.16.1-.33.15-.52.14-.07.16-.25.24-.53.24.01.03.02.09.02.17,0,.15-.03.3-.09.44-.06.14-.14.25-.23.32.09.22.14.44.14.66,0,.2-.05.35-.14.45.03.05.07.1.11.17.04.07.07.13.09.19.02.09.03.16.03.21,0,.08-.03.19-.09.33.06.14.09.24.09.31,0,.09-.04.22-.12.38.07.12.1.24.1.38,0,.16-.04.3-.12.41.08.18.12.37.12.57,0,.15-.03.29-.1.41.06.12.09.23.09.35,0,.16-.05.31-.15.45.05.25,0,.45-.15.6Z"/>
        <path d="M22.63,15.05c.07.12.1.26.1.42,0,.15-.03.27-.08.38.05.23-.03.42-.24.59-.21.17-.45.25-.71.25-.21,0-.4-.07-.56-.21-.17-.14-.26-.35-.29-.63-.11-.13-.16-.26-.16-.4,0-.23.1-.43.29-.63.19-.19.42-.29.68-.29.24,0,.48.11.73.32.09.01.17.08.24.2Z"/>
        <path d="M36.41,13.68c.27-.26.39-.51.36-.74.18-.1.33-.28.45-.53.12-.25.18-.48.17-.7,0-.16-.06-.3-.15-.41.05-.17.07-.36.06-.58s-.06-.43-.14-.63c.1-.2.14-.43.13-.71s-.08-.5-.2-.71-.29-.36-.51-.43c-.02-.14-.09-.29-.2-.47-.11-.17-.22-.3-.31-.38v-.19c0-.25-.09-.44-.26-.57-.14-.12-.26-.19-.35-.21,0-.14-.05-.26-.17-.35-.13-.1-.29-.17-.48-.22-.04-.16-.1-.28-.2-.36s-.24-.14-.44-.19c-.05-.14-.14-.25-.28-.35s-.28-.16-.45-.18c-.1-.22-.22-.36-.35-.43-.13-.07-.32-.1-.58-.09-.07-.45-.4-.76-.99-.92-.1-.13-.21-.22-.34-.27-.13-.05-.27-.08-.41-.11-.14-.02-.25-.04-.31-.05-.2-.14-.46-.27-.79-.39-.32-.12-.63-.17-.93-.15-.15,0-.29.03-.43.08-.1-.12-.24-.22-.43-.29-.19-.07-.39-.11-.58-.1s-.37.06-.51.17c-.56.03-.82.33-.79.92,0,.1.03.24.06.43-.23.2-.34.44-.33.7,0,.18.07.33.18.47-.07.17-.1.29-.1.38,0,.1.06.22.18.38-.18.32-.26.69-.24,1.08.02.34.11.62.29.83-.14.29-.2.62-.18.98.02.43.14.83.37,1.2-.08.14-.15.33-.21.56-.06.23-.08.45-.07.67.02.34.11.61.28.79-.1.13-.18.3-.24.51s-.08.42-.07.62c.01.27.08.48.21.63-.01.04-.02.1-.01.19,0,.16.05.3.13.41-.1.21-.12.5-.07.87-.28.18-.41.42-.4.72,0,.15.06.29.15.43.1.13.23.23.4.29.07.13.18.24.33.32.15.08.31.11.48.1.21,0,.4-.07.56-.19.11.13.35.19.71.17.2,0,.36-.04.48-.08s.19-.11.21-.17c.3.05.6.08.88.06.39-.02.7-.09.94-.21.14.08.3.11.48.1.29-.01.5-.11.64-.28.12.02.22.03.29.03.24-.01.47-.09.68-.24.21-.15.34-.33.39-.53.15.06.3.09.43.08.2,0,.38-.07.55-.17.17-.1.29-.22.38-.35.2,0,.37-.08.52-.22.15-.14.25-.32.28-.54.3-.08.58-.25.85-.51ZM29.46,4.46c.25.06.49.08.71.07.21.25.44.37.69.36,0,.19.1.34.28.45.18.11.42.21.73.31.04.22.16.41.35.58.2.17.4.24.61.22.13.15.29.25.49.31.12.24.29.41.52.49.06.26.21.44.45.56.04.18.11.35.2.52.1.17.2.28.31.33.04.25.11.49.21.72.1.24.23.37.38.41-.04.11-.06.22-.05.33,0,.07.02.17.06.31-.1.14-.14.45-.12.91.01.25.04.43.09.55-.01.03-.06.09-.14.17-.08.09-.12.18-.11.27-.1.03-.18.09-.24.18-.06.08-.1.14-.13.17-.23.01-.42.09-.58.25-.16.16-.25.35-.27.57-.12,0-.27.02-.44.09-.17.07-.3.16-.38.28-.18-.03-.41,0-.68.12-.27.12-.44.28-.49.51-.05-.01-.13-.01-.25,0-.21,0-.39.07-.53.17-.14-.05-.3-.07-.48-.06-.3.01-.58.1-.85.27-.26-.08-.53-.12-.8-.11-.3.01-.55.09-.76.24-.09-.04-.2-.05-.32-.05-.01,0-.02,0-.02-.02.06-.06.1-.17.13-.35.03-.17.04-.37.03-.59-.02-.55-.12-.9-.27-1.04.07-.11.13-.32.18-.62.05-.3.06-.6.05-.9-.02-.41-.09-.71-.2-.9.1-.18.14-.43.12-.75-.02-.4-.12-.71-.31-.93.09-.28.14-.66.15-1.14l.02-.48c0-.12,0-.27-.04-.45-.04-.18-.06-.33-.07-.47s0-.28.05-.44c.02-.19.03-.34.03-.43,0-.12-.03-.24-.08-.35.06-.07.11-.19.16-.36.05-.17.05-.31,0-.41.17.07.34.11.5.1.26-.01.44-.09.55-.23.1.12.27.21.52.27Z"/>
        <path d="M43.85,16.61c-.28,0-.51-.04-.69-.11-.27.05-.5.07-.71.07-.58,0-.99-.12-1.24-.35-.06.01-.14.02-.24.02-.34,0-.6-.12-.78-.37-.15.01-.34-.05-.57-.19-.23-.14-.33-.27-.3-.4-.24-.05-.43-.16-.59-.34-.16-.18-.23-.39-.21-.63-.16-.05-.29-.14-.38-.28-.09-.14-.13-.3-.13-.48,0-.19.04-.32.11-.41-.16-.2-.24-.43-.24-.69s.1-.49.31-.65c-.16-.09-.24-.24-.24-.42,0-.12.04-.24.11-.35.07-.12.17-.2.29-.25-.03-.16,0-.32.08-.47.08-.15.2-.26.34-.33-.03-.04-.04-.09-.04-.16,0-.11.05-.21.14-.32.1-.11.2-.17.32-.19-.01-.04-.02-.08-.02-.14,0-.25.12-.46.35-.65.24-.18.47-.26.69-.24,0-.16.09-.3.28-.42.18-.11.42-.17.72-.17.13,0,.24,0,.31.02.1-.18.28-.32.53-.43.25-.11.51-.17.78-.17.18,0,.33.03.44.09.21-.14.47-.21.78-.21.25,0,.48.05.68.14.2.09.32.22.37.39.24,0,.49.07.75.2.27.14.42.27.47.42.35.08.7.26,1.03.54.33.28.5.56.5.84,0,.05-.01.12-.04.21.64.11.92.62.87,1.54.13.18.2.37.2.57,0,.24-.1.47-.29.71.04.11.07.21.07.3,0,.14-.04.28-.11.41-.07.13-.17.23-.29.3.01.19-.03.34-.12.46-.1.12-.27.28-.52.48.01.05.02.12.02.21,0,.35-.25.58-.75.69-.04.19-.17.34-.37.46-.2.12-.44.18-.72.18-.24.26-.53.39-.87.39-.1,0-.19,0-.24-.02-.18.14-.45.21-.82.21ZM43.19,15.03c.21,0,.32.02.33.07.12-.11.27-.19.44-.25.18-.06.34-.08.49-.07.25-.2.52-.3.82-.3.1,0,.18,0,.22.02-.01-.11.02-.21.11-.31.09-.1.19-.17.31-.2,0-.15.05-.29.14-.4.1-.11.22-.2.37-.26,0-.24.06-.42.18-.57-.04-.09-.07-.19-.07-.28,0-.13.04-.26.11-.38.07-.12.18-.23.31-.31-.15-.11-.22-.24-.22-.39,0-.14.05-.28.16-.42-.3-.14-.49-.28-.59-.42-.1-.14-.14-.39-.14-.75-.13.01-.27-.05-.41-.18-.14-.13-.23-.28-.25-.44-.16.04-.36,0-.59-.11-.23-.11-.34-.26-.34-.43-.12.05-.26.07-.42.07-.31,0-.56-.09-.75-.27-.16.13-.37.23-.63.31-.26.08-.48.1-.68.08-.01.12-.14.26-.39.42-.24.16-.46.26-.65.31.04.07.07.15.07.25,0,.12-.04.24-.11.35-.07.12-.18.22-.31.3.01.17-.03.32-.14.48-.11.15-.26.26-.45.32.03.09.04.17.04.23,0,.17-.05.29-.16.39.04.08.07.17.07.25,0,.13-.08.27-.24.42.37.2.55.49.55.87,0,.2-.04.37-.13.51.15.01.25.05.31.11.06.06.11.15.16.28.37.04.64.18.82.42.16,0,.37.04.61.12.24.08.4.18.48.28.12-.08.32-.12.6-.12Z"/>
      </g>
    </g>
  </g>
</svg>