<?xml version="1.0" encoding="UTF-8"?>
<svg xmlns="http://www.w3.org/2000/svg" xmlns:xlink="http://www.w3.org/1999/xlink" viewBox="0 0 60 60">
  <defs>
    <style>
      .cls-1, .cls-2 {
        fill: none;
      }

      .cls-2 {
        mix-blend-mode: multiply;
        opacity: .3;
        stroke: #f6f6f6;
        stroke-miterlimit: 10;
        stroke-width: .15px;
      }

      .cls-3 {
        isolation: isolate;
      }

      .cls-4 {
        clip-path: url(#clippath);
      }
    </style>
    <clipPath id="clippath">
      <rect class="cls-1" x="0" y=".09" width="135.08" height="65.24"/>
    </clipPath>
  </defs>
  <g class="cls-3">
    <g id="Capa_1" data-name="Capa 1">
      <g class="cls-4">
        <g>
          <rect class="cls-2" x="-4.93" y="-4.85" width="5" height="4.99"/>
          <g>
            <rect class="cls-2" x=".08" y="-4.85" width="5" height="4.99"/>
            <rect class="cls-2" x="5.08" y="-4.85" width="5" height="4.99"/>
            <rect class="cls-2" x="10.08" y="-4.85" width="5" height="4.99"/>
            <rect class="cls-2" x="15.08" y="-4.85" width="5" height="4.99"/>
            <rect class="cls-2" x="20.07" y="-4.85" width="5" height="4.99"/>
            <rect class="cls-2" x="25.07" y="-4.85" width="5" height="4.99"/>
          </g>
          <g>
            <rect class="cls-2" x="30.08" y="-4.85" width="5" height="4.99"/>
            <rect class="cls-2" x="35.08" y="-4.85" width="5" height="4.99"/>
            <rect class="cls-2" x="40.08" y="-4.85" width="5" height="4.99"/>
            <rect class="cls-2" x="45.07" y="-4.85" width="5" height="4.99"/>
            <rect class="cls-2" x="50.07" y="-4.85" width="5" height="4.99"/>
            <rect class="cls-2" x="55.07" y="-4.85" width="5" height="4.99"/>
          </g>
          <g>
            <rect class="cls-2" x="-4.93" y=".16" width="5" height="4.99"/>
            <rect class="cls-2" x="-4.93" y="5.15" width="5" height="4.99"/>
            <rect class="cls-2" x="-4.93" y="10.15" width="5" height="4.99"/>
            <rect class="cls-2" x="-4.93" y="15.14" width="5" height="4.99"/>
            <rect class="cls-2" x="-4.93" y="20.13" width="5" height="4.99"/>
            <rect class="cls-2" x="-4.93" y="25.13" width="5" height="4.99"/>
          </g>
          <g>
            <rect class="cls-2" x=".08" y=".16" width="5" height="4.99"/>
            <rect class="cls-2" x="5.08" y=".16" width="5" height="4.99"/>
            <rect class="cls-2" x="10.08" y=".16" width="5" height="4.99"/>
            <rect class="cls-2" x=".08" y="5.15" width="5" height="4.99"/>
            <rect class="cls-2" x="5.08" y="5.15" width="5" height="4.99"/>
            <rect class="cls-2" x="10.08" y="5.15" width="5" height="4.99"/>
            <rect class="cls-2" x=".08" y="10.15" width="5" height="4.99"/>
            <rect class="cls-2" x="5.08" y="10.15" width="5" height="4.99"/>
            <rect class="cls-2" x="10.08" y="10.15" width="5" height="4.99"/>
            <rect class="cls-2" x="15.08" y=".16" width="5" height="4.99"/>
            <rect class="cls-2" x="20.07" y=".16" width="5" height="4.99"/>
            <rect class="cls-2" x="25.07" y=".16" width="5" height="4.99"/>
            <rect class="cls-2" x="15.08" y="5.15" width="5" height="4.99"/>
            <rect class="cls-2" x="20.07" y="5.15" width="5" height="4.99"/>
            <rect class="cls-2" x="25.07" y="5.15" width="5" height="4.99"/>
            <rect class="cls-2" x="15.08" y="10.15" width="5" height="4.99"/>
            <rect class="cls-2" x="20.07" y="10.15" width="5" height="4.99"/>
            <rect class="cls-2" x="25.07" y="10.15" width="5" height="4.99"/>
            <rect class="cls-2" x=".08" y="15.14" width="5" height="4.99"/>
            <rect class="cls-2" x="5.08" y="15.14" width="5" height="4.99"/>
            <rect class="cls-2" x="10.08" y="15.14" width="5" height="4.99"/>
            <rect class="cls-2" x=".08" y="20.13" width="5" height="4.99"/>
            <rect class="cls-2" x="5.08" y="20.13" width="5" height="4.99"/>
            <rect class="cls-2" x="10.08" y="20.13" width="5" height="4.99"/>
            <rect class="cls-2" x=".08" y="25.13" width="5" height="4.99"/>
            <rect class="cls-2" x="5.08" y="25.13" width="5" height="4.99"/>
            <rect class="cls-2" x="10.08" y="25.13" width="5" height="4.99"/>
            <rect class="cls-2" x="15.08" y="15.14" width="5" height="4.99"/>
            <rect class="cls-2" x="20.07" y="15.14" width="5" height="4.99"/>
            <rect class="cls-2" x="25.07" y="15.14" width="5" height="4.99"/>
            <rect class="cls-2" x="15.08" y="20.13" width="5" height="4.99"/>
            <rect class="cls-2" x="20.07" y="20.13" width="5" height="4.99"/>
            <rect class="cls-2" x="25.07" y="20.13" width="5" height="4.99"/>
            <rect class="cls-2" x="15.08" y="25.13" width="5" height="4.99"/>
            <rect class="cls-2" x="20.07" y="25.13" width="5" height="4.99"/>
            <rect class="cls-2" x="25.07" y="25.13" width="5" height="4.99"/>
          </g>
          <g>
            <rect class="cls-2" x="30.08" y=".16" width="5" height="4.99"/>
            <rect class="cls-2" x="35.08" y=".16" width="5" height="4.99"/>
            <rect class="cls-2" x="40.08" y=".16" width="5" height="4.99"/>
            <rect class="cls-2" x="30.08" y="5.15" width="5" height="4.99"/>
            <rect class="cls-2" x="35.08" y="5.15" width="5" height="4.99"/>
            <rect class="cls-2" x="40.08" y="5.15" width="5" height="4.99"/>
            <rect class="cls-2" x="30.08" y="10.15" width="5" height="4.99"/>
            <rect class="cls-2" x="35.08" y="10.15" width="5" height="4.99"/>
            <rect class="cls-2" x="40.08" y="10.15" width="5" height="4.99"/>
            <rect class="cls-2" x="45.07" y=".16" width="5" height="4.99"/>
            <rect class="cls-2" x="50.07" y=".16" width="5" height="4.99"/>
            <rect class="cls-2" x="55.07" y=".16" width="5" height="4.99"/>
            <rect class="cls-2" x="45.07" y="5.15" width="5" height="4.99"/>
            <rect class="cls-2" x="50.07" y="5.15" width="5" height="4.99"/>
            <rect class="cls-2" x="55.07" y="5.15" width="5" height="4.99"/>
            <rect class="cls-2" x="45.07" y="10.15" width="5" height="4.99"/>
            <rect class="cls-2" x="50.07" y="10.15" width="5" height="4.99"/>
            <rect class="cls-2" x="55.07" y="10.15" width="5" height="4.99"/>
            <rect class="cls-2" x="30.08" y="15.14" width="5" height="4.99"/>
            <rect class="cls-2" x="35.08" y="15.14" width="5" height="4.99"/>
            <rect class="cls-2" x="40.08" y="15.14" width="5" height="4.99"/>
            <rect class="cls-2" x="30.08" y="20.13" width="5" height="4.99"/>
            <rect class="cls-2" x="35.08" y="20.13" width="5" height="4.99"/>
            <rect class="cls-2" x="40.08" y="20.13" width="5" height="4.99"/>
            <rect class="cls-2" x="30.08" y="25.13" width="5" height="4.99"/>
            <rect class="cls-2" x="35.08" y="25.13" width="5" height="4.99"/>
            <rect class="cls-2" x="40.08" y="25.13" width="5" height="4.99"/>
            <rect class="cls-2" x="45.07" y="15.14" width="5" height="4.99"/>
            <rect class="cls-2" x="50.07" y="15.14" width="5" height="4.99"/>
            <rect class="cls-2" x="55.07" y="15.14" width="5" height="4.99"/>
            <rect class="cls-2" x="45.07" y="20.13" width="5" height="4.99"/>
            <rect class="cls-2" x="50.07" y="20.13" width="5" height="4.99"/>
            <rect class="cls-2" x="55.07" y="20.13" width="5" height="4.99"/>
            <rect class="cls-2" x="45.07" y="25.13" width="5" height="4.99"/>
            <rect class="cls-2" x="50.07" y="25.13" width="5" height="4.99"/>
            <rect class="cls-2" x="55.07" y="25.13" width="5" height="4.99"/>
          </g>
          <g>
            <rect class="cls-2" x="-4.93" y="30.13" width="5" height="4.99"/>
            <rect class="cls-2" x="-4.93" y="35.13" width="5" height="4.99"/>
            <rect class="cls-2" x="-4.93" y="40.12" width="5" height="4.99"/>
            <rect class="cls-2" x="-4.93" y="45.11" width="5" height="4.99"/>
            <rect class="cls-2" x="-4.93" y="50.11" width="5" height="4.99"/>
            <rect class="cls-2" x="-4.93" y="55.1" width="5" height="4.99"/>
          </g>
          <g>
            <rect class="cls-2" x=".08" y="30.13" width="5" height="4.99"/>
            <rect class="cls-2" x="5.08" y="30.13" width="5" height="4.99"/>
            <rect class="cls-2" x="10.08" y="30.13" width="5" height="4.99"/>
            <rect class="cls-2" x=".08" y="35.13" width="5" height="4.99"/>
            <rect class="cls-2" x="5.08" y="35.13" width="5" height="4.99"/>
            <rect class="cls-2" x="10.08" y="35.13" width="5" height="4.99"/>
            <rect class="cls-2" x=".08" y="40.12" width="5" height="4.99"/>
            <rect class="cls-2" x="5.08" y="40.12" width="5" height="4.99"/>
            <rect class="cls-2" x="10.08" y="40.12" width="5" height="4.99"/>
            <rect class="cls-2" x="15.08" y="30.13" width="5" height="4.99"/>
            <rect class="cls-2" x="20.07" y="30.13" width="5" height="4.99"/>
            <rect class="cls-2" x="25.07" y="30.13" width="5" height="4.99"/>
            <rect class="cls-2" x="15.08" y="35.13" width="5" height="4.99"/>
            <rect class="cls-2" x="20.07" y="35.13" width="5" height="4.99"/>
            <rect class="cls-2" x="25.07" y="35.13" width="5" height="4.99"/>
            <rect class="cls-2" x="15.08" y="40.12" width="5" height="4.99"/>
            <rect class="cls-2" x="20.07" y="40.12" width="5" height="4.99"/>
            <rect class="cls-2" x="25.07" y="40.12" width="5" height="4.99"/>
            <rect class="cls-2" x=".08" y="45.11" width="5" height="4.99"/>
            <rect class="cls-2" x="5.08" y="45.11" width="5" height="4.99"/>
            <rect class="cls-2" x="10.08" y="45.11" width="5" height="4.99"/>
            <rect class="cls-2" x=".08" y="50.11" width="5" height="4.99"/>
            <rect class="cls-2" x="5.08" y="50.11" width="5" height="4.99"/>
            <rect class="cls-2" x="10.08" y="50.11" width="5" height="4.99"/>
            <rect class="cls-2" x=".08" y="55.1" width="5" height="4.99"/>
            <rect class="cls-2" x="5.08" y="55.1" width="5" height="4.99"/>
            <rect class="cls-2" x="10.08" y="55.1" width="5" height="4.99"/>
            <rect class="cls-2" x="15.08" y="45.11" width="5" height="4.99"/>
            <rect class="cls-2" x="20.07" y="45.11" width="5" height="4.99"/>
            <rect class="cls-2" x="25.07" y="45.11" width="5" height="4.99"/>
            <rect class="cls-2" x="15.08" y="50.11" width="5" height="4.99"/>
            <rect class="cls-2" x="20.07" y="50.11" width="5" height="4.99"/>
            <rect class="cls-2" x="25.07" y="50.11" width="5" height="4.99"/>
            <rect class="cls-2" x="15.08" y="55.1" width="5" height="4.99"/>
            <rect class="cls-2" x="20.07" y="55.1" width="5" height="4.99"/>
            <rect class="cls-2" x="25.07" y="55.1" width="5" height="4.99"/>
          </g>
          <g>
            <rect class="cls-2" x="30.08" y="30.13" width="5" height="4.99"/>
            <rect class="cls-2" x="35.08" y="30.13" width="5" height="4.99"/>
            <rect class="cls-2" x="40.08" y="30.13" width="5" height="4.99"/>
            <rect class="cls-2" x="30.08" y="35.13" width="5" height="4.99"/>
            <rect class="cls-2" x="35.08" y="35.13" width="5" height="4.99"/>
            <rect class="cls-2" x="40.08" y="35.13" width="5" height="4.99"/>
            <rect class="cls-2" x="30.08" y="40.12" width="5" height="4.99"/>
            <rect class="cls-2" x="35.08" y="40.12" width="5" height="4.99"/>
            <rect class="cls-2" x="40.08" y="40.12" width="5" height="4.99"/>
            <rect class="cls-2" x="45.07" y="30.13" width="5" height="4.99"/>
            <rect class="cls-2" x="50.07" y="30.13" width="5" height="4.99"/>
            <rect class="cls-2" x="55.07" y="30.13" width="5" height="4.99"/>
            <rect class="cls-2" x="45.07" y="35.13" width="5" height="4.99"/>
            <rect class="cls-2" x="50.07" y="35.13" width="5" height="4.99"/>
            <rect class="cls-2" x="55.07" y="35.13" width="5" height="4.99"/>
            <rect class="cls-2" x="45.07" y="40.12" width="5" height="4.99"/>
            <rect class="cls-2" x="50.07" y="40.12" width="5" height="4.99"/>
            <rect class="cls-2" x="55.07" y="40.12" width="5" height="4.99"/>
            <rect class="cls-2" x="30.08" y="45.11" width="5" height="4.99"/>
            <rect class="cls-2" x="35.08" y="45.11" width="5" height="4.99"/>
            <rect class="cls-2" x="40.08" y="45.11" width="5" height="4.99"/>
            <rect class="cls-2" x="30.08" y="50.11" width="5" height="4.99"/>
            <rect class="cls-2" x="35.08" y="50.11" width="5" height="4.99"/>
            <rect class="cls-2" x="40.08" y="50.11" width="5" height="4.99"/>
            <rect class="cls-2" x="30.08" y="55.1" width="5" height="4.99"/>
            <rect class="cls-2" x="35.08" y="55.1" width="5" height="4.99"/>
            <rect class="cls-2" x="40.08" y="55.1" width="5" height="4.99"/>
            <rect class="cls-2" x="45.07" y="45.11" width="5" height="4.99"/>
            <rect class="cls-2" x="50.07" y="45.11" width="5" height="4.99"/>
            <rect class="cls-2" x="55.07" y="45.11" width="5" height="4.99"/>
            <rect class="cls-2" x="45.07" y="50.11" width="5" height="4.99"/>
            <rect class="cls-2" x="50.07" y="50.11" width="5" height="4.99"/>
            <rect class="cls-2" x="55.07" y="50.11" width="5" height="4.99"/>
            <rect class="cls-2" x="45.07" y="55.1" width="5" height="4.99"/>
            <rect class="cls-2" x="50.07" y="55.1" width="5" height="4.99"/>
            <rect class="cls-2" x="55.07" y="55.1" width="5" height="4.99"/>
          </g>
        </g>
      </g>
    </g>
  </g>
</svg>